<svg xmlns="http://www.w3.org/2000/svg" xmlns:xlink="http://www.w3.org/1999/xlink" id="Calque_3" x="0px" y="0px" viewBox="0 0 290 200" style="enable-background:new 0 0 290 200;" xml:space="preserve"><style type="text/css">	.st0{fill:#FFFFFF;}</style><g>	<path class="st0" d="M82.29,51.15c1.3,1.32,2.93,1.98,4.89,1.98c1.09,0,2.02-0.16,2.77-0.49c0.75-0.33,1.46-0.82,2.11-1.47  l-2.88-2.87c-0.34,0.34-0.64,0.59-0.91,0.74c-0.27,0.15-0.64,0.23-1.09,0.23c-0.73,0-1.29-0.25-1.68-0.75  c-0.23-0.32-0.4-0.77-0.51-1.35c-0.1-0.58-0.16-1.58-0.16-3.01c0-1.07,0.03-1.89,0.08-2.44c0.05-0.55,0.12-0.96,0.22-1.23  c0.09-0.27,0.22-0.5,0.37-0.7c0.39-0.49,0.95-0.74,1.68-0.74c0.46,0,0.83,0.08,1.11,0.23c0.28,0.15,0.58,0.4,0.9,0.74l2.88-2.88  c-0.64-0.64-1.34-1.12-2.1-1.45c-0.76-0.33-1.69-0.5-2.78-0.5c-1.02,0-1.93,0.16-2.72,0.49c-0.79,0.33-1.51,0.82-2.17,1.48  c-0.77,0.77-1.26,1.65-1.47,2.64c-0.21,0.99-0.31,2.24-0.31,3.75v0.59v0.59c0,1.52,0.1,2.76,0.31,3.75  C81.02,49.49,81.52,50.37,82.29,51.15z"></path>	<path class="st0" d="M109.51,35.21l-6.41,17.63h4.54l0.86-2.62h5.43l0.82,2.62h4.52l-6.41-17.63H109.51z M109.71,46.6l1.58-4.7  l1.49,4.7H109.71z"></path>	<polygon class="st0" points="86.28,69.68 82.32,61.9 78.07,61.9 78.07,79.53 82.39,79.53 82.39,71.09 84.9,75.45 87.67,75.45   90.17,71.09 90.17,79.53 94.5,79.53 94.5,61.9 90.24,61.9  "></polygon>	<path class="st0" d="M109.01,73.25h2.65c1.27,0,2.35-0.27,3.25-0.8c0.9-0.53,1.59-1.23,2.06-2.09c0.47-0.86,0.71-1.79,0.71-2.78  c0-1-0.24-1.93-0.71-2.79c-0.47-0.86-1.16-1.56-2.06-2.09c-0.9-0.53-1.98-0.79-3.25-0.79h-6.98v17.63h4.33V73.25z M109.01,65.8  h2.46c0.38,0,0.71,0.08,1,0.25c0.29,0.16,0.51,0.38,0.65,0.66c0.15,0.27,0.22,0.57,0.22,0.88s-0.08,0.6-0.22,0.87  c-0.15,0.27-0.37,0.49-0.65,0.65c-0.29,0.17-0.62,0.25-1,0.25h-2.46V65.8z"></path>	<path class="st0" d="M88.64,99.65c0,0.54-0.1,1-0.29,1.39c-0.19,0.39-0.47,0.68-0.84,0.88c-0.36,0.2-0.78,0.3-1.25,0.3  c-0.73,0-1.3-0.23-1.72-0.68c-0.42-0.46-0.62-1.09-0.62-1.89V88.31h-4.33v11.44c0,1.25,0.3,2.36,0.89,3.32  c0.59,0.96,1.4,1.71,2.43,2.23c1.03,0.52,2.14,0.79,3.34,0.79c0.91,0,1.77-0.15,2.59-0.44c0.81-0.29,1.53-0.72,2.15-1.29  c0.62-0.56,1.1-1.24,1.45-2.03c0.35-0.79,0.52-1.65,0.52-2.58V88.31h-4.33V99.65z"></path>	<path class="st0" d="M116.62,96.82c-0.77-0.75-1.92-1.24-3.47-1.46l-2.13-0.29c-0.53-0.07-0.94-0.25-1.21-0.52  c-0.23-0.23-0.35-0.51-0.35-0.82c0-0.43,0.18-0.81,0.54-1.14c0.36-0.33,0.89-0.5,1.58-0.5c0.73,0,1.36,0.06,1.89,0.18  c0.52,0.12,1.01,0.41,1.46,0.86l2.72-2.72c-0.73-0.73-1.57-1.27-2.54-1.6c-0.97-0.33-2.11-0.5-3.4-0.5c-1.31,0-2.45,0.24-3.42,0.71  c-0.97,0.48-1.72,1.14-2.24,1.98s-0.78,1.8-0.78,2.87c0,1.53,0.4,2.71,1.21,3.54c0.8,0.82,1.98,1.34,3.54,1.56l2.13,0.3  c0.54,0.07,0.93,0.23,1.16,0.47s0.35,0.59,0.35,1.04c0,1.06-0.84,1.58-2.53,1.58c-0.77,0-1.5-0.1-2.21-0.3  c-0.71-0.2-1.28-0.51-1.72-0.95l-2.78,2.78c0.84,0.85,1.8,1.45,2.88,1.8c1.08,0.35,2.35,0.52,3.81,0.52c1.25,0,2.39-0.22,3.43-0.65  c1.03-0.43,1.86-1.07,2.47-1.9c0.61-0.84,0.91-1.83,0.91-2.99c0-0.87-0.1-1.62-0.31-2.26C117.42,97.8,117.08,97.26,116.62,96.82z"></path>	<path class="st0" d="M61.29,174.03v4.91v9.96h59.45h4.86h10.45V13.41H61.29V174.03z M66.12,129.25h59.48v-4.86H66.12V18.13h65.09  v166.05h-5.61v-44.91v-4.86h-4.86H66.12V129.25z M66.12,139.27h54.61v44.91h-5.05v-35.05v-4.86h-4.86h-44.7V139.27z M66.12,149.13  h44.7v35.05h-5.05v-25.16v-4.86h-4.86H66.12V149.13z M66.12,159.02h34.78v25.16h-5.05v-15.16v-4.86h-4.86H66.12V159.02z   M66.12,169.02h24.87v15.16h-5.05v-5.24v-4.91h-4.91H66.12V169.02z M66.12,178.94h14.91v5.24H66.12V178.94z"></path>	<path class="st0" d="M162.13,136.8c-0.77,0-1.5-0.1-2.21-0.3c-0.71-0.2-1.28-0.51-1.72-0.95l-2.78,2.78  c0.84,0.86,1.8,1.46,2.88,1.8c1.08,0.35,2.35,0.52,3.81,0.52c1.25,0,2.39-0.21,3.43-0.65c1.04-0.43,1.86-1.07,2.47-1.91  c0.61-0.84,0.91-1.83,0.91-2.99c0-0.87-0.1-1.62-0.31-2.26c-0.21-0.63-0.54-1.17-1-1.61c-0.77-0.75-1.92-1.24-3.47-1.46l-2.13-0.29  c-0.53-0.07-0.93-0.25-1.21-0.52c-0.23-0.23-0.35-0.51-0.35-0.82c0-0.43,0.18-0.8,0.54-1.14c0.36-0.33,0.89-0.5,1.58-0.5  c0.73,0,1.36,0.06,1.89,0.18c0.52,0.12,1.01,0.41,1.46,0.86l2.72-2.72c-0.73-0.73-1.57-1.27-2.55-1.6c-0.97-0.33-2.11-0.5-3.4-0.5  c-1.31,0-2.44,0.24-3.42,0.71c-0.97,0.48-1.72,1.13-2.24,1.98c-0.52,0.84-0.78,1.8-0.78,2.87c0,1.53,0.4,2.71,1.21,3.54  c0.8,0.82,1.98,1.34,3.54,1.56l2.13,0.3c0.54,0.07,0.93,0.23,1.16,0.47c0.23,0.24,0.35,0.59,0.35,1.04  C164.66,136.27,163.81,136.8,162.13,136.8z"></path>	<path class="st0" d="M176.98,137.89h5.43l0.82,2.62h4.52l-6.41-17.63H178l-6.41,17.63h4.54L176.98,137.89z M179.78,129.57l1.49,4.7  h-3.07L179.78,129.57z"></path>	<rect x="192.14" y="122.88" class="st0" width="4.33" height="17.63"></rect>	<polygon class="st0" points="206.47,131.65 212.12,140.51 215.91,140.51 215.91,122.88 211.58,122.88 211.58,131.75 205.93,122.88   202.14,122.88 202.14,140.51 206.47,140.51  "></polygon>	<polygon class="st0" points="233.55,122.88 220.54,122.88 220.54,126.74 224.88,126.74 224.88,140.51 229.21,140.51 229.21,126.74   233.55,126.74  "></polygon>	<rect x="237.1" y="131.3" class="st0" width="8.13" height="3.83"></rect>	<path class="st0" d="M161.71,147.65l-6.41,17.63h4.54l0.86-2.62h5.43l0.82,2.62h4.52l-6.41-17.63H161.71z M161.91,159.04l1.58-4.7  l1.49,4.7H161.91z"></path>	<path class="st0" d="M185.41,162.87c0.61-0.84,0.91-1.83,0.91-2.99c0-0.87-0.1-1.62-0.31-2.26c-0.21-0.63-0.54-1.17-1-1.61  c-0.77-0.75-1.92-1.24-3.47-1.46l-2.13-0.29c-0.53-0.07-0.93-0.24-1.21-0.52c-0.23-0.23-0.35-0.51-0.35-0.82  c0-0.43,0.18-0.81,0.54-1.14c0.36-0.33,0.89-0.5,1.58-0.5c0.73,0,1.36,0.06,1.89,0.18c0.52,0.12,1.01,0.41,1.46,0.86l2.72-2.72  c-0.73-0.73-1.57-1.27-2.55-1.6c-0.97-0.33-2.11-0.5-3.4-0.5c-1.31,0-2.45,0.24-3.42,0.71c-0.97,0.48-1.72,1.14-2.24,1.98  c-0.52,0.84-0.78,1.8-0.78,2.87c0,1.53,0.4,2.71,1.21,3.54c0.8,0.82,1.98,1.34,3.54,1.56l2.13,0.3c0.54,0.07,0.93,0.23,1.16,0.47  c0.23,0.24,0.35,0.59,0.35,1.04c0,1.06-0.84,1.58-2.53,1.58c-0.77,0-1.5-0.1-2.21-0.3c-0.71-0.2-1.28-0.51-1.72-0.95l-2.78,2.78  c0.84,0.85,1.8,1.45,2.88,1.8c1.08,0.35,2.35,0.52,3.81,0.52c1.25,0,2.39-0.22,3.43-0.65C183.97,164.34,184.8,163.71,185.41,162.87  z"></path>	<path class="st0" d="M200.64,158.19c0.9-0.53,1.59-1.23,2.06-2.09c0.47-0.86,0.71-1.79,0.71-2.78c0-1-0.24-1.93-0.71-2.79  c-0.47-0.86-1.16-1.56-2.06-2.09s-1.98-0.79-3.25-0.79h-6.98v17.63h4.33v-6.29h2.65C198.65,158.99,199.74,158.72,200.64,158.19z   M194.74,155.1v-3.56h2.46c0.38,0,0.71,0.08,1,0.25c0.29,0.16,0.51,0.38,0.65,0.66c0.15,0.27,0.22,0.57,0.22,0.88  s-0.08,0.6-0.22,0.87c-0.15,0.27-0.37,0.49-0.65,0.65c-0.29,0.16-0.62,0.25-1,0.25H194.74z"></path>	<path class="st0" d="M211.79,147.65l-6.41,17.63h4.53l0.86-2.62h5.43l0.82,2.62h4.52l-6.41-17.63H211.79z M212,159.04l1.58-4.7  l1.49,4.7H212z"></path>	<rect x="224.58" y="147.65" class="st0" width="4.33" height="17.63"></rect>	<path class="st0" d="M245.23,157.63c-0.21-0.63-0.54-1.17-1-1.61c-0.77-0.75-1.92-1.24-3.47-1.46l-2.13-0.29  c-0.53-0.07-0.93-0.24-1.21-0.52c-0.23-0.23-0.35-0.51-0.35-0.82c0-0.43,0.18-0.81,0.54-1.14c0.36-0.33,0.89-0.5,1.58-0.5  c0.73,0,1.36,0.06,1.89,0.18c0.52,0.12,1.01,0.41,1.46,0.86l2.72-2.72c-0.72-0.73-1.57-1.27-2.54-1.6c-0.97-0.33-2.11-0.5-3.4-0.5  c-1.31,0-2.44,0.24-3.42,0.71c-0.97,0.48-1.72,1.14-2.24,1.98c-0.52,0.84-0.78,1.8-0.78,2.87c0,1.53,0.4,2.71,1.21,3.54  c0.8,0.82,1.98,1.34,3.54,1.56l2.13,0.3c0.54,0.07,0.93,0.23,1.16,0.47c0.23,0.24,0.35,0.59,0.35,1.04c0,1.06-0.84,1.58-2.53,1.58  c-0.77,0-1.5-0.1-2.21-0.3c-0.71-0.2-1.28-0.51-1.72-0.95l-2.78,2.78c0.84,0.85,1.8,1.46,2.88,1.8c1.08,0.35,2.35,0.52,3.81,0.52  c1.25,0,2.39-0.22,3.43-0.65c1.03-0.43,1.86-1.07,2.47-1.9c0.61-0.84,0.91-1.83,0.91-2.99  C245.54,159.01,245.44,158.26,245.23,157.63z"></path>	<polygon class="st0" points="162.98,184.71 158.84,178.3 158.82,178.26 156.2,178.26 156.2,180.06 157.5,180.06 157.5,187.14   156.17,187.14 156.17,188.94 160.85,188.94 160.85,187.14 159.52,187.14 159.5,182.66 162.36,187.22 162.38,187.25 163.6,187.25   166.43,182.72 166.43,187.14 165.12,187.14 165.12,188.94 169.79,188.94 169.79,187.14 168.46,187.14 168.46,180.06 169.79,180.06   169.79,178.26 167.15,178.26  "></polygon>	<polygon class="st0" points="172.64,180.06 173.97,180.06 173.97,187.14 172.64,187.14 172.64,188.94 181.75,188.94 181.75,185.26   179.93,185.26 179.93,187.07 175.98,187.07 175.98,184.61 179.53,184.61 179.53,182.73 175.98,182.73 175.98,180.13 179.93,180.13   179.93,181.94 181.75,181.94 181.75,178.26 172.64,178.26  "></polygon>	<polygon class="st0" points="191.52,187.11 187.9,187.11 187.9,180.06 189.87,180.06 189.87,178.26 184.56,178.26 184.56,180.06   185.89,180.06 185.89,187.14 184.56,187.14 184.56,188.94 193.47,188.94 193.47,185.26 191.52,185.26  "></polygon>	<path class="st0" d="M202.59,180.06h1.33v4.13c0,1.85-1.1,3.1-2.74,3.1c-1.62,0-2.71-1.24-2.71-3.1v-4.13h1.32v-1.8h-4.66v1.8h1.33  v4.13c0,3.03,1.85,4.98,4.72,4.98c2.88,0,4.73-1.96,4.73-4.98v-4.13h1.33v-1.8h-4.66V180.06z"></path>	<polygon class="st0" points="216.73,180.06 218.07,180.06 218.07,185.49 212.03,178.29 212.01,178.26 209.29,178.26 209.29,180.06   210.62,180.06 210.62,187.14 209.29,187.14 209.29,188.94 213.95,188.94 213.95,187.14 212.63,187.14 212.63,182 218.49,188.91   218.51,188.94 220.08,188.94 220.08,180.06 221.39,180.06 221.39,178.26 216.73,178.26  "></polygon></g></svg>